# xmcd
#
# Track frame offsets:
#	150
#	10153
#	19693
#	29203
#	40787
#	52951
#	63554
#	76273
#	84451
#	94438
#	105163
#	116330
#	128221
#	137642
#	147132
#	159209
#	169694
#	180746
#	192570
#	201483
#	210878
#	221550
#	232272
#	244745
#	256964
#	267998
#
# Disc length: 3708 seconds
# Revision: 1
# Processed by: cddbd v1.5.2PL0 Copyright (c) Steve Scherf et al.
# Submitted via: dBpowerAMP V12.0
#
DISCID=6c0e7a1a
DTITLE=Margie Singleton - She Will Break Your Heart
DYEAR=2012
DGENRE=Country
TTITLE0=Oo Ee You're The One For Me
TTITLE1=Teddy
TTITLE2=I Want To Be Where You're Gonna Be
TTITLE3=Shattered Kingdom
TTITLE4=Destination Love
TTITLE5=Toss A Pebble
TTITLE6=She Will Break Your Heart
TTITLE7=Voices Of Love
TTITLE8=One Step Nearer To You
TTITLE9=Not What He's Got
TTITLE10=My Picture Of You
TTITLE11=Love Is A Treasure
TTITLE12=Take Time Out For Love
TTITLE13=Beautiful Dawn
TTITLE14=Nothing But True Love
TTITLE15=It's Better To Know
TTITLE16=Eyes Od Love
TTITLE17=Angel Hands
TTITLE18=For The Love Of Jim
TTITLE19=My Special Dream
TTITLE20=I'll Just Walk On By
TTITLE21=Her Image Keeps Getting In The Way
TTITLE22=On The Cross
TTITLE23=Your Old Love Letters
TTITLE24=Just Remember
TTITLE25=Golden Anniversary
EXTD=
EXTT0=
EXTT1=
EXTT2=
EXTT3=
EXTT4=
EXTT5=
EXTT6=
EXTT7=
EXTT8=
EXTT9=
EXTT10=
EXTT11=
EXTT12=
EXTT13=
EXTT14=
EXTT15=
EXTT16=
EXTT17=
EXTT18=
EXTT19=
EXTT20=
EXTT21=
EXTT22=
EXTT23=
EXTT24=
EXTT25=
PLAYORDER=
